<svg width="12" height="14" viewBox="0 0 12 14" fill="none" xmlns="http://www.w3.org/2000/svg">
<path d="M9.29394 7.32854C9.27745 5.65782 10.6566 4.85643 10.718 4.81685C9.94297 3.68237 8.73593 3.52737 8.30588 3.50956C7.27891 3.40534 6.30141 4.1144 5.77968 4.1144C5.25993 4.1144 4.45524 3.52473 3.60305 3.54056C2.4844 3.55705 1.45215 4.19091 0.875678 5.19347C-0.287827 7.2118 0.577546 10.203 1.71137 11.8401C2.26542 12.6415 2.92632 13.5418 3.79367 13.5088C4.62871 13.4759 4.94465 12.9686 5.95447 12.9686C6.96429 12.9686 7.24857 13.5095 8.13241 13.493C9.03143 13.4759 9.60065 12.6758 10.1507 11.8724C10.7872 10.9424 11.0491 10.0421 11.0649 9.9959C11.0451 9.98732 9.31175 9.32312 9.2946 7.32789L9.29394 7.32854ZM7.63311 2.42586C8.0935 1.86719 8.40416 1.09218 8.31908 0.319153C7.65619 0.345536 6.85216 0.761074 6.3766 1.31842C5.94985 1.81311 5.57587 2.60131 5.67613 3.35917C6.41618 3.41722 7.17206 2.98321 7.63311 2.42586Z" fill="white"/>
</svg>
