<svg width="12" height="12" viewBox="0 0 12 12" fill="none" xmlns="http://www.w3.org/2000/svg">
<path d="M6 6C7.3807 6 8.5 4.88071 8.5 3.5C8.5 2.11929 7.3807 1 6 1C4.61929 1 3.5 2.11929 3.5 3.5C3.5 4.88071 4.61929 6 6 6Z" stroke="black" stroke-width="0.8" stroke-linecap="round" stroke-linejoin="round"/>
<path opacity="0.4" d="M1.70508 11C1.70508 9.065 3.63007 7.5 6.0001 7.5C6.4801 7.5 6.9451 7.565 7.3801 7.685" stroke="black" stroke-width="1.5" stroke-linecap="round" stroke-linejoin="round"/>
<path d="M11 9C11 9.16 10.98 9.315 10.94 9.465C10.895 9.665 10.815 9.86 10.71 10.03C10.365 10.61 9.73 11 9 11C8.485 11 8.02 10.805 7.67 10.485C7.52 10.355 7.39 10.2 7.29 10.03C7.105 9.73 7 9.375 7 9C7 8.46 7.215 7.965 7.565 7.605C7.93 7.23 8.44 7 9 7C9.59 7 10.125 7.255 10.485 7.665C10.805 8.02 11 8.49 11 9Z" stroke="black" stroke-width="0.5" stroke-miterlimit="10" stroke-linecap="round" stroke-linejoin="round"/>
<path d="M9.74586 8.99023H8.25586" stroke="black" stroke-width="0.5" stroke-miterlimit="10" stroke-linecap="round" stroke-linejoin="round"/>
<path d="M9 8.25977V9.75477" stroke="black" stroke-width="0.5" stroke-miterlimit="10" stroke-linecap="round" stroke-linejoin="round"/>
</svg>
