<svg width="32" height="32" viewBox="0 0 32 32" fill="none" xmlns="http://www.w3.org/2000/svg">
<circle cx="16" cy="16" r="16" fill="#DCF763"/>
<path d="M19.4745 9.49151C19.5618 9.22955 19.4203 8.94637 19.1583 8.85901C18.8963 8.77165 18.6132 8.91319 18.5258 9.17515L18.0258 10.6745C17.9385 10.9364 18.08 11.2196 18.3419 11.307C18.6039 11.3943 18.8871 11.2528 18.9745 10.9908L19.4745 9.49151ZM22.5202 9.47978C22.7155 9.67504 22.7155 9.99163 22.5202 10.1869L20.8535 11.8536C20.6583 12.0488 20.3417 12.0488 20.1465 11.8536C19.9512 11.6583 19.9512 11.3417 20.1465 11.1464L21.8131 9.47978C22.0084 9.28452 22.3249 9.28452 22.5202 9.47978ZM16.5804 10.4939C15.8365 9.69697 14.5241 9.89665 14.0509 10.8788L10.119 19.0392C9.89197 19.5103 9.99625 20.0743 10.3768 20.4331L11.3359 21.3377C11.6875 21.6691 12.2035 21.7575 12.6453 21.5617L13.5903 21.1431C14.0183 22.0439 14.9365 22.6667 16.0002 22.6667C17.473 22.6667 18.6669 21.4727 18.6669 20C18.6669 19.6398 18.5955 19.2963 18.4661 18.9829L20.746 17.9727C21.7206 17.541 21.9786 16.2771 21.2513 15.4979L16.5804 10.4939ZM17.5511 19.3883C17.6258 19.5777 17.6669 19.7841 17.6669 20C17.6669 20.9205 16.9207 21.6667 16.0002 21.6667C15.3446 21.6667 14.7775 21.2881 14.5053 20.7377L17.5511 19.3883ZM20.6667 13.4995C20.6667 13.2234 20.8905 12.9995 21.1667 12.9995H22.5C22.7761 12.9995 23 13.2234 23 13.4995C23 13.7757 22.7761 13.9995 22.5 13.9995H21.1667C20.8905 13.9995 20.6667 13.7757 20.6667 13.4995Z" fill="black"/>
</svg>
