<svg width="16" height="16" viewBox="0 0 16 16" fill="none" xmlns="http://www.w3.org/2000/svg">
<path d="M11.4745 1.49145C11.5618 1.22949 11.4203 0.946306 11.1583 0.858946C10.8963 0.771586 10.6132 0.913126 10.5258 1.17509L10.0258 2.67441C9.93847 2.93637 10.08 3.21955 10.3419 3.30691C10.6039 3.39427 10.8871 3.25273 10.9745 2.99077L11.4745 1.49145ZM14.5202 1.47972C14.7155 1.67498 14.7155 1.99157 14.5202 2.18683L12.8535 3.85349C12.6583 4.04875 12.3417 4.04875 12.1465 3.85349C11.9512 3.65823 11.9512 3.34165 12.1465 3.14639L13.8131 1.47972C14.0084 1.28446 14.3249 1.28446 14.5202 1.47972ZM8.5804 2.49385C7.83647 1.69691 6.52407 1.89659 6.05086 2.87871L2.11899 11.0391C1.89197 11.5103 1.99625 12.0742 2.37675 12.4331L3.33591 13.3376C3.68745 13.6691 4.20354 13.7574 4.64533 13.5617L5.5903 13.143C6.01833 14.0438 6.93653 14.6666 8.0002 14.6666C9.473 14.6666 10.6669 13.4727 10.6669 11.9999C10.6669 11.6397 10.5955 11.2963 10.4661 10.9828L12.746 9.97267C13.7206 9.54094 13.9786 8.27707 13.2513 7.49787L8.5804 2.49385ZM9.55107 11.3882C9.6258 11.5776 9.66687 11.784 9.66687 11.9999C9.66687 12.9204 8.92073 13.6666 8.0002 13.6666C7.3446 13.6666 6.77747 13.2881 6.5053 12.7377L9.55107 11.3882ZM12.6667 5.49945C12.6667 5.22331 12.8905 4.99945 13.1667 4.99945H14.5C14.7761 4.99945 15 5.22331 15 5.49945C15 5.77559 14.7761 5.99945 14.5 5.99945H13.1667C12.8905 5.99945 12.6667 5.77559 12.6667 5.49945Z" fill="#DCF763"/>
</svg>
