<svg width="12" height="12" viewBox="0 0 12 12" fill="none" xmlns="http://www.w3.org/2000/svg">
<path d="M6 11.375C3.035 11.375 0.625 8.965 0.625 6C0.625 3.035 3.035 0.625 6 0.625C8.965 0.625 11.375 3.035 11.375 6C11.375 8.965 8.965 11.375 6 11.375ZM6 1.375C3.45 1.375 1.375 3.45 1.375 6C1.375 8.55 3.45 10.625 6 10.625C8.55 10.625 10.625 8.55 10.625 6C10.625 3.45 8.55 1.375 6 1.375Z" fill="white" fill-opacity="0.6"/>
<path d="M7.85531 7.96585C7.79031 7.96585 7.72531 7.95085 7.66531 7.91085L6.11531 6.98585C5.73031 6.75585 5.44531 6.25085 5.44531 5.80585V3.75586C5.44531 3.55086 5.61531 3.38086 5.82031 3.38086C6.02531 3.38086 6.19531 3.55086 6.19531 3.75586V5.80585C6.19531 5.98585 6.34531 6.25085 6.50031 6.34085L8.05031 7.26585C8.23031 7.37085 8.28531 7.60085 8.18031 7.78085C8.10531 7.90085 7.98031 7.96585 7.85531 7.96585Z" fill="white" fill-opacity="0.6"/>
</svg>
