<svg width="32" height="32" viewBox="0 0 32 32" fill="none" xmlns="http://www.w3.org/2000/svg">
<circle cx="16" cy="16" r="16" fill="#DCF763"/>
<path d="M16 8.5C11.8675 8.5 8.5 11.8675 8.5 16C8.5 20.1325 11.8675 23.5 16 23.5C20.1325 23.5 23.5 20.1325 23.5 16C23.5 11.8675 20.1325 8.5 16 8.5ZM18.52 17.725C18.7375 17.9425 18.7375 18.3025 18.52 18.52C18.4075 18.6325 18.265 18.685 18.1225 18.685C17.98 18.685 17.8375 18.6325 17.725 18.52L16 16.795L14.275 18.52C14.1625 18.6325 14.02 18.685 13.8775 18.685C13.735 18.685 13.5925 18.6325 13.48 18.52C13.2625 18.3025 13.2625 17.9425 13.48 17.725L15.205 16L13.48 14.275C13.2625 14.0575 13.2625 13.6975 13.48 13.48C13.6975 13.2625 14.0575 13.2625 14.275 13.48L16 15.205L17.725 13.48C17.9425 13.2625 18.3025 13.2625 18.52 13.48C18.7375 13.6975 18.7375 14.0575 18.52 14.275L16.795 16L18.52 17.725Z" fill="black"/>
</svg>
