<svg width="21" height="21" viewBox="0 0 21 21" fill="none" xmlns="http://www.w3.org/2000/svg">
<path d="M2.08606 3.46648L2.66691 2.65086C2.3616 2.43343 1.96041 2.40472 1.62725 2.57647C1.29409 2.74822 1.08475 3.09165 1.08475 3.46648H2.08606ZM2.08606 17.3322H1.08475C1.08475 17.707 1.29409 18.0505 1.62725 18.2222C1.96041 18.394 2.3616 18.3653 2.66691 18.1478L2.08606 17.3322ZM11.8211 10.3993L12.4019 11.215C12.6657 11.0271 12.8224 10.7232 12.8224 10.3993C12.8224 10.0755 12.6657 9.7716 12.4019 9.58373L11.8211 10.3993ZM1.08475 3.46648V17.3322H3.08737V3.46648H1.08475ZM2.66691 18.1478L12.4019 11.215L11.2402 9.58373L1.50521 16.5166L2.66691 18.1478ZM12.4019 9.58373L2.66691 2.65086L1.50521 4.2821L11.2402 11.215L12.4019 9.58373ZM17.7733 2.77319V18.0255H19.7759V2.77319H17.7733Z" fill="white" fill-opacity="0.4"/>
</svg>
