<svg width="32" height="32" viewBox="0 0 32 32" fill="none" xmlns="http://www.w3.org/2000/svg">
<circle cx="16" cy="16" r="16" fill="#DCF763"/>
<path d="M23.3597 21.12V22.72C23.3595 22.8897 23.292 23.0524 23.172 23.1723C23.052 23.2923 22.8893 23.3598 22.7197 23.36H21.7597C21.6748 23.36 21.5934 23.3263 21.5334 23.2663L20.7997 22.5325L20.0659 23.2663C20.0059 23.3263 19.9245 23.36 19.8397 23.36H18.5597C18.507 23.36 18.4551 23.347 18.4087 23.3222C18.3622 23.2973 18.3226 23.2614 18.2934 23.2175L17.8042 22.4838C16.4203 23.0572 14.9377 23.3549 13.4397 23.36C12.0618 23.3579 10.6895 23.1851 9.35418 22.8456C9.14918 22.7918 8.96783 22.6715 8.83853 22.5035C8.70924 22.3356 8.63929 22.1295 8.63965 21.9175V20.8C8.64049 20.7517 8.65212 20.7041 8.67371 20.6608C8.69529 20.6176 8.72628 20.5797 8.7644 20.5499C8.80253 20.5202 8.84682 20.4993 8.89404 20.4889C8.94125 20.4785 8.99021 20.4788 9.03731 20.4897C9.06246 20.496 11.5821 21.12 13.4397 21.12C15.2972 21.12 17.8168 20.496 17.842 20.4897C17.8674 20.4832 17.8935 20.48 17.9197 20.48H22.7197C22.8893 20.4802 23.052 20.5477 23.172 20.6677C23.292 20.7877 23.3595 20.9503 23.3597 21.12ZM22.7197 8.64001H16.3197C16.15 8.64018 15.9873 8.70767 15.8673 8.82765C15.7473 8.94764 15.6798 9.11033 15.6797 9.28001V11.2C15.6798 11.3697 15.7473 11.5324 15.8673 11.6524C15.9873 11.7724 16.15 11.8398 16.3197 11.84H22.7197C22.8893 11.8398 23.052 11.7724 23.172 11.6524C23.292 11.5324 23.3595 11.3697 23.3597 11.2V9.28001C23.3595 9.11033 23.292 8.94764 23.172 8.82765C23.052 8.70767 22.8893 8.64018 22.7197 8.64001ZM16.1693 13.12H15.6797C15.5948 13.12 15.5134 13.1537 15.4534 13.2137C15.3934 13.2738 15.3597 13.3551 15.3597 13.44C15.3597 13.5249 15.3934 13.6063 15.4534 13.6663C15.5134 13.7263 15.5948 13.76 15.6797 13.76H16.1725C16.1789 13.5392 16.1757 13.3216 16.1693 13.12ZM15.6797 14.4C15.5948 14.4 15.5134 14.4337 15.4534 14.4937C15.3934 14.5538 15.3597 14.6351 15.3597 14.72C15.3597 14.8049 15.3934 14.8863 15.4534 14.9463C15.5134 15.0063 15.5948 15.04 15.6797 15.04H16.0381C16.0797 14.8284 16.1107 14.6148 16.1309 14.4H15.6797ZM15.4876 15.4624C15.4062 15.4378 15.3183 15.4466 15.2432 15.4868C15.1682 15.527 15.1123 15.5953 15.0876 15.6768C15.063 15.7583 15.0718 15.8462 15.112 15.9212C15.1522 15.9962 15.2206 16.0522 15.3021 16.0768L15.6765 16.1888C15.7687 15.9949 15.8447 15.7937 15.9037 15.5872L15.4876 15.4624ZM14.9309 16.4256C14.86 16.3799 14.7739 16.364 14.6914 16.3814C14.6089 16.3988 14.5366 16.4481 14.4902 16.5185C14.4439 16.5889 14.4271 16.6748 14.4437 16.7575C14.4603 16.8402 14.5089 16.9129 14.5788 16.96L14.9437 17.2C15.0792 17.0803 15.2025 16.9474 15.3117 16.8032C15.3341 16.7744 15.3533 16.7456 15.3725 16.7168L14.9309 16.4256ZM21.4397 14.4C21.4396 14.4632 21.4209 14.5249 21.3859 14.5775L20.8715 15.3491L21.5997 16.32H23.0397V13.0167L21.4397 13.6567V14.4ZM16.9054 18.5985C17.13 18.5428 17.34 18.4398 17.5216 18.2965C17.7032 18.1531 17.8521 17.9727 17.9584 17.7672C18.9093 16.0171 18.6767 13.7136 18.4491 12.48H16.3197C16.2545 12.4785 16.1895 12.4719 16.1254 12.4604C16.1441 12.6584 16.1604 12.8794 16.1693 13.12H17.2797C17.3645 13.12 17.4459 13.1537 17.5059 13.2137C17.5659 13.2738 17.5997 13.3551 17.5997 13.44C17.5997 13.5249 17.5659 13.6063 17.5059 13.6663C17.4459 13.7263 17.3645 13.76 17.2797 13.76H16.1725C16.1661 13.968 16.1533 14.1824 16.1309 14.4H17.2797C17.3645 14.4 17.4459 14.4337 17.5059 14.4937C17.5659 14.5538 17.5997 14.6351 17.5997 14.72C17.5997 14.8049 17.5659 14.8863 17.5059 14.9463C17.4459 15.0063 17.3645 15.04 17.2797 15.04H16.0381C16.0042 15.2249 15.9593 15.4077 15.9037 15.5872L17.0173 15.9232C17.0987 15.9478 17.1671 16.0038 17.2073 16.0788C17.2475 16.1538 17.2562 16.2417 17.2317 16.3232C17.2057 16.4038 17.1496 16.4712 17.0749 16.5112C17.0003 16.5512 16.9131 16.5607 16.8317 16.5376L15.6765 16.1888C15.5927 16.3744 15.4909 16.5512 15.3725 16.7168L16.2685 17.3024C16.3037 17.3255 16.3342 17.3554 16.3579 17.3902C16.3817 17.4251 16.3984 17.4643 16.407 17.5056C16.4156 17.5469 16.416 17.5895 16.4081 17.631C16.4003 17.6724 16.3844 17.7119 16.3612 17.7472C16.3381 17.7825 16.3083 17.8129 16.2734 17.8367C16.2386 17.8604 16.1994 17.8771 16.1581 17.8857C16.1168 17.8944 16.0742 17.8948 16.0327 17.8869C15.9913 17.8791 15.9517 17.8631 15.9165 17.84L14.9437 17.2C14.486 17.5913 13.9188 17.832 13.3194 17.8893C14.2727 18.3361 15.7903 18.8994 16.9054 18.5985ZM21.1837 16.8319L20.2237 15.552C20.184 15.4991 20.1616 15.4351 20.1598 15.3689C20.1579 15.3027 20.1767 15.2376 20.2134 15.1825L20.7997 14.3031V13.44C20.7997 13.3761 20.8189 13.3136 20.8547 13.2606C20.8905 13.2077 20.9414 13.1666 21.0007 13.1428L22.6577 12.48H19.1042C19.343 13.8222 19.5435 16.1903 18.5209 18.0728C18.2872 18.4709 17.9493 18.7976 17.5435 19.0176C17.1378 19.2377 16.6797 19.3428 16.2186 19.3216C14.5076 19.3216 12.5685 18.2482 12.1648 18.0136C10.5135 18.2278 9.42063 18.6684 8.91805 19.3312C8.78849 19.4951 8.69867 19.6868 8.65565 19.8912C8.7537 19.8584 8.85627 19.8412 8.95965 19.84C9.03841 19.8399 9.11687 19.8496 9.19325 19.8688C9.21565 19.8752 11.6733 20.48 13.4397 20.48C15.2061 20.48 17.6637 19.8752 17.6861 19.8688C17.7624 19.8494 17.8409 19.8397 17.9197 19.84H22.7197C22.8278 19.8417 22.9352 19.8567 23.0397 19.8848V19.0778L22.0797 18.5978L20.9428 19.1663C20.8744 19.2004 20.7961 19.209 20.722 19.1903L19.442 18.8703C19.4012 18.8601 19.3629 18.842 19.3291 18.817C19.2954 18.792 19.2669 18.7606 19.2453 18.7245C19.2237 18.6885 19.2094 18.6486 19.2032 18.607C19.1971 18.5655 19.1991 18.5231 19.2093 18.4824C19.2195 18.4416 19.2376 18.4033 19.2627 18.3695C19.2877 18.3358 19.3191 18.3073 19.3551 18.2857C19.3911 18.2641 19.4311 18.2498 19.4726 18.2436C19.5142 18.2374 19.5565 18.2395 19.5973 18.2497L20.7624 18.541L21.9365 17.9538C21.981 17.9316 22.03 17.92 22.0796 17.92C22.1293 17.92 22.1783 17.9316 22.2228 17.9538L23.0397 18.3622V16.96H21.4397C21.39 16.96 21.341 16.9484 21.2965 16.9262C21.2521 16.904 21.2135 16.8717 21.1837 16.8319Z" fill="black"/>
</svg>
