<svg width="32" height="32" viewBox="0 0 32 32" fill="none" xmlns="http://www.w3.org/2000/svg">
<circle cx="16" cy="16" r="16" fill="#DCF763"/>
<path d="M20.0044 14.3274H21.3363V15.6593H22.6681V14.3274H24V12.9956H22.6681V11.6637H21.3363V12.9956H20.0044V14.3274ZM8.63919 19.1932C9.31403 18.7848 10.4683 18.1632 11.8179 17.6837C12.9012 19.3885 14.4639 19.6548 15.3163 19.6548C16.1864 19.6548 17.7491 19.3885 18.8146 17.6659C20.1998 18.1453 21.3718 18.7846 22.0466 19.1932C22.4373 19.424 22.6682 19.868 22.6682 20.3297V21.6615C22.6682 22.0345 22.3663 22.3364 21.9934 22.3364H8.67474C8.30176 22.3364 7.9999 22.0345 7.9999 21.6615V20.3297C8.01774 19.8679 8.24863 19.4239 8.63932 19.1932L8.63919 19.1932ZM15.3163 9C13.4695 9 11.9777 10.5449 11.9777 12.4451C11.9777 14.3452 12.2973 18.323 15.3163 18.323C18.3351 18.323 18.6548 14.363 18.6548 12.4451C18.6548 10.5449 17.163 9 15.3163 9Z" fill="black"/>
</svg>
