<svg width="28" height="33" viewBox="0 0 28 33" fill="none" xmlns="http://www.w3.org/2000/svg">
<path d="M24.3605 27.171L23.3935 28.3177C23.8397 28.694 24.4635 28.7772 24.9928 28.5312C25.522 28.2852 25.8605 27.7546 25.8605 27.171H24.3605ZM24.3605 6.00149H25.8605C25.8605 5.41788 25.522 4.88726 24.9928 4.64126C24.4635 4.39526 23.8397 4.47855 23.3935 4.85476L24.3605 6.00149ZM11.8079 16.5863L10.841 15.4395C10.503 15.7245 10.3079 16.1441 10.3079 16.5863C10.3079 17.0284 10.503 17.448 10.841 17.733L11.8079 16.5863ZM25.8605 27.171V6.00149H22.8605V27.171H25.8605ZM23.3935 4.85476L10.841 15.4395L12.7749 17.733L25.3274 7.14822L23.3935 4.85476ZM10.841 17.733L23.3935 28.3177L25.3274 26.0243L12.7749 15.4395L10.841 17.733ZM4.3418 28.2295V4.94301H1.3418V28.2295H4.3418Z" fill="#E3E3E3"/>
</svg>
