<svg width="375" height="252" viewBox="0 0 375 252" fill="none" xmlns="http://www.w3.org/2000/svg">
<mask id="mask0_2719_4288" style="mask-type:alpha" maskUnits="userSpaceOnUse" x="0" y="0" width="375" height="252">
<rect width="375" height="252" fill="#B16D17"/>
</mask>
<g mask="url(#mask0_2719_4288)">
<g filter="url(#filter0_d_2719_4288)">
<ellipse cx="340.134" cy="126.933" rx="143.696" ry="142.662" fill="url(#paint0_linear_2719_4288)"/>
<ellipse cx="340.134" cy="126.933" rx="137.064" ry="136.078" fill="url(#paint1_linear_2719_4288)"/>
<ellipse cx="340.134" cy="126.933" rx="129.326" ry="128.396" fill="url(#paint2_linear_2719_4288)"/>
<ellipse cx="340.134" cy="126.933" rx="121.589" ry="120.714" fill="url(#paint3_linear_2719_4288)"/>
<ellipse cx="340.134" cy="126.932" rx="112.746" ry="111.935" fill="url(#paint4_linear_2719_4288)"/>
<ellipse cx="340.134" cy="126.932" rx="105.009" ry="104.253" fill="url(#paint5_linear_2719_4288)"/>
<ellipse cx="340.134" cy="126.933" rx="82.9015" ry="82.3051" fill="url(#paint6_linear_2719_4288)"/>
<g filter="url(#filter1_d_2719_4288)">
<ellipse cx="342" cy="126" rx="64.1538" ry="63.6923" fill="black" fill-opacity="0.2" shape-rendering="crispEdges"/>
</g>
</g>
</g>
<g opacity="0.68" clip-path="url(#clip0_2719_4288)">
<path d="M340.5 128.805C342.325 128.805 343.805 127.325 343.805 125.5C343.805 123.675 342.325 122.195 340.5 122.195C338.675 122.195 337.195 123.675 337.195 125.5C337.195 127.325 338.675 128.805 340.5 128.805Z" fill="white"/>
<path d="M334.463 133.373C334.178 133.374 333.896 133.313 333.635 133.197C333.375 133.08 333.142 132.909 332.952 132.696C331.191 130.713 330.218 128.153 330.218 125.501C330.218 122.849 331.191 120.288 332.952 118.306C333.127 118.102 333.341 117.936 333.58 117.816C333.82 117.696 334.081 117.625 334.349 117.607C334.617 117.589 334.885 117.624 335.139 117.711C335.392 117.798 335.626 117.934 335.827 118.113C336.027 118.291 336.19 118.507 336.306 118.749C336.422 118.991 336.488 119.253 336.501 119.521C336.515 119.789 336.475 120.057 336.383 120.309C336.292 120.561 336.151 120.793 335.97 120.99C334.865 122.233 334.255 123.838 334.255 125.501C334.255 127.164 334.865 128.769 335.97 130.013C336.228 130.304 336.397 130.663 336.456 131.048C336.515 131.432 336.462 131.826 336.302 132.181C336.143 132.536 335.885 132.837 335.558 133.049C335.231 133.26 334.851 133.373 334.462 133.373H334.463Z" fill="white"/>
<path d="M346.537 133.373C346.147 133.373 345.767 133.26 345.44 133.049C345.114 132.837 344.855 132.536 344.696 132.181C344.536 131.826 344.483 131.432 344.542 131.048C344.601 130.663 344.77 130.304 345.028 130.013C346.133 128.769 346.743 127.164 346.743 125.501C346.743 123.838 346.133 122.233 345.028 120.99C344.847 120.793 344.706 120.561 344.615 120.309C344.523 120.057 344.483 119.789 344.497 119.521C344.51 119.253 344.576 118.991 344.692 118.749C344.808 118.507 344.971 118.291 345.171 118.113C345.372 117.934 345.606 117.798 345.859 117.711C346.113 117.624 346.381 117.589 346.649 117.607C346.917 117.625 347.178 117.696 347.418 117.816C347.657 117.936 347.871 118.102 348.046 118.306C349.807 120.288 350.781 122.849 350.781 125.501C350.781 128.153 349.807 130.713 348.046 132.696C347.856 132.909 347.624 133.079 347.364 133.196C347.104 133.313 346.822 133.373 346.537 133.373Z" fill="white"/>
<path d="M329.786 138.05C329.509 138.051 329.235 137.994 328.981 137.883C328.727 137.773 328.499 137.611 328.31 137.408C325.29 134.177 323.611 129.92 323.611 125.498C323.611 121.075 325.29 116.818 328.31 113.587C328.491 113.392 328.709 113.234 328.951 113.123C329.192 113.012 329.454 112.95 329.72 112.941C329.986 112.931 330.251 112.974 330.5 113.068C330.75 113.161 330.978 113.302 331.172 113.484C331.367 113.666 331.523 113.885 331.633 114.127C331.743 114.37 331.803 114.631 331.811 114.897C331.819 115.163 331.775 115.428 331.68 115.677C331.586 115.926 331.443 116.154 331.26 116.347C328.94 118.829 327.649 122.1 327.649 125.498C327.649 128.896 328.94 132.167 331.26 134.649C331.528 134.937 331.706 135.296 331.773 135.684C331.839 136.071 331.791 136.47 331.635 136.83C331.478 137.191 331.22 137.498 330.892 137.714C330.563 137.93 330.179 138.045 329.785 138.046L329.786 138.05Z" fill="white"/>
<path d="M351.214 138.051C350.821 138.05 350.436 137.935 350.108 137.719C349.779 137.503 349.521 137.196 349.364 136.835C349.208 136.475 349.16 136.076 349.227 135.689C349.293 135.301 349.471 134.942 349.739 134.654C352.06 132.172 353.35 128.901 353.35 125.503C353.35 122.105 352.06 118.834 349.739 116.352C349.557 116.158 349.414 115.931 349.319 115.682C349.224 115.433 349.18 115.168 349.188 114.902C349.196 114.636 349.257 114.374 349.366 114.132C349.476 113.889 349.632 113.671 349.827 113.489C350.021 113.307 350.25 113.166 350.499 113.072C350.748 112.979 351.013 112.936 351.279 112.946C351.545 112.955 351.807 113.017 352.049 113.128C352.291 113.239 352.508 113.397 352.689 113.592C355.709 116.823 357.389 121.08 357.389 125.503C357.389 129.925 355.709 134.182 352.689 137.413C352.5 137.615 352.272 137.776 352.018 137.885C351.764 137.995 351.49 138.051 351.214 138.051Z" fill="white"/>
<path d="M356.381 142.207C355.991 142.207 355.61 142.094 355.282 141.882C354.955 141.67 354.697 141.368 354.538 141.012C354.379 140.656 354.326 140.261 354.386 139.876C354.446 139.491 354.616 139.131 354.876 138.841C358.151 135.169 359.961 130.42 359.961 125.5C359.961 120.58 358.151 115.831 354.876 112.159C354.531 111.759 354.356 111.238 354.39 110.71C354.424 110.182 354.664 109.688 355.058 109.335C355.453 108.982 355.97 108.798 356.499 108.822C357.027 108.847 357.525 109.078 357.885 109.466C361.823 113.879 363.999 119.586 363.999 125.5C363.999 131.414 361.823 137.122 357.885 141.534C357.696 141.746 357.464 141.915 357.205 142.031C356.946 142.147 356.665 142.207 356.381 142.207Z" fill="white"/>
<path d="M324.619 142.207C324.335 142.208 324.053 142.148 323.794 142.032C323.534 141.916 323.302 141.746 323.113 141.534C319.175 137.122 316.999 131.414 316.999 125.5C316.999 119.586 319.175 113.879 323.113 109.466C323.473 109.078 323.971 108.847 324.499 108.822C325.028 108.798 325.545 108.982 325.94 109.335C326.334 109.688 326.574 110.182 326.608 110.71C326.642 111.238 326.467 111.759 326.122 112.159C322.847 115.831 321.037 120.58 321.037 125.5C321.037 130.42 322.847 135.169 326.122 138.841C326.382 139.131 326.552 139.491 326.612 139.876C326.672 140.261 326.62 140.655 326.461 141.011C326.302 141.367 326.044 141.669 325.717 141.881C325.39 142.094 325.009 142.207 324.619 142.207Z" fill="white"/>
</g>
<defs>
<filter id="filter0_d_2719_4288" x="186.438" y="-19.7295" width="307.392" height="305.324" filterUnits="userSpaceOnUse" color-interpolation-filters="sRGB">
<feFlood flood-opacity="0" result="BackgroundImageFix"/>
<feColorMatrix in="SourceAlpha" type="matrix" values="0 0 0 0 0 0 0 0 0 0 0 0 0 0 0 0 0 0 127 0" result="hardAlpha"/>
<feOffset dy="6"/>
<feGaussianBlur stdDeviation="5"/>
<feComposite in2="hardAlpha" operator="out"/>
<feColorMatrix type="matrix" values="0 0 0 0 0.0156863 0 0 0 0 0.121569 0 0 0 0 0.117647 0 0 0 0.25 0"/>
<feBlend mode="normal" in2="BackgroundImageFix" result="effect1_dropShadow_2719_4288"/>
<feBlend mode="normal" in="SourceGraphic" in2="effect1_dropShadow_2719_4288" result="shape"/>
</filter>
<filter id="filter1_d_2719_4288" x="271.846" y="56.3076" width="140.308" height="139.385" filterUnits="userSpaceOnUse" color-interpolation-filters="sRGB">
<feFlood flood-opacity="0" result="BackgroundImageFix"/>
<feColorMatrix in="SourceAlpha" type="matrix" values="0 0 0 0 0 0 0 0 0 0 0 0 0 0 0 0 0 0 127 0" result="hardAlpha"/>
<feOffset/>
<feGaussianBlur stdDeviation="3"/>
<feComposite in2="hardAlpha" operator="out"/>
<feColorMatrix type="matrix" values="0 0 0 0 0.0156863 0 0 0 0 0.121569 0 0 0 0 0.117647 0 0 0 0.25 0"/>
<feBlend mode="normal" in2="BackgroundImageFix" result="effect1_dropShadow_2719_4288"/>
<feBlend mode="normal" in="SourceGraphic" in2="effect1_dropShadow_2719_4288" result="shape"/>
</filter>
<linearGradient id="paint0_linear_2719_4288" x1="277.129" y1="1.82893" x2="418.179" y2="248.528" gradientUnits="userSpaceOnUse">
<stop stop-color="#041F1E"/>
<stop offset="0.512321" stop-color="#596767"/>
<stop offset="1" stop-color="#041F1E"/>
</linearGradient>
<linearGradient id="paint1_linear_2719_4288" x1="280.037" y1="7.60301" x2="414.577" y2="242.916" gradientUnits="userSpaceOnUse">
<stop stop-color="#041F1E"/>
<stop offset="0.512321" stop-color="#596767"/>
<stop offset="1" stop-color="#041F1E"/>
</linearGradient>
<linearGradient id="paint2_linear_2719_4288" x1="283.43" y1="14.3392" x2="410.375" y2="236.368" gradientUnits="userSpaceOnUse">
<stop stop-color="#041F1E"/>
<stop offset="0.512321" stop-color="#596767"/>
<stop offset="1" stop-color="#041F1E"/>
</linearGradient>
<linearGradient id="paint3_linear_2719_4288" x1="286.822" y1="21.0759" x2="406.172" y2="229.821" gradientUnits="userSpaceOnUse">
<stop stop-color="#041F1E"/>
<stop offset="0.512321" stop-color="#596767"/>
<stop offset="1" stop-color="#041F1E"/>
</linearGradient>
<linearGradient id="paint4_linear_2719_4288" x1="290.699" y1="28.7742" x2="401.369" y2="222.338" gradientUnits="userSpaceOnUse">
<stop stop-color="#041F1E"/>
<stop offset="0.512321" stop-color="#596767"/>
<stop offset="1" stop-color="#041F1E"/>
</linearGradient>
<linearGradient id="paint5_linear_2719_4288" x1="294.092" y1="35.5104" x2="397.167" y2="215.79" gradientUnits="userSpaceOnUse">
<stop stop-color="#041F1E"/>
<stop offset="0.512321" stop-color="#596767"/>
<stop offset="1" stop-color="#041F1E"/>
</linearGradient>
<linearGradient id="paint6_linear_2719_4288" x1="303.785" y1="54.7573" x2="385.16" y2="197.084" gradientUnits="userSpaceOnUse">
<stop stop-color="#041F1E"/>
<stop offset="0.512321" stop-color="#596767"/>
<stop offset="1" stop-color="#041F1E"/>
</linearGradient>
<clipPath id="clip0_2719_4288">
<rect width="47" height="47" fill="white" transform="translate(317 102)"/>
</clipPath>
</defs>
</svg>
