<svg width="16" height="17" viewBox="0 0 16 17" fill="none" xmlns="http://www.w3.org/2000/svg">
<g clip-path="url(#clip0_879_3934)">
<path d="M3.47272 7.02579C3.78133 6.09212 4.37692 5.27975 5.17452 4.70459C5.97213 4.12942 6.931 3.82084 7.91435 3.82286C9.02905 3.82286 10.0369 4.21861 10.8284 4.86632L13.1317 2.56371C11.7281 1.34018 9.92938 0.584961 7.91435 0.584961C4.79453 0.584961 2.1087 2.36452 0.817238 4.97119L3.47272 7.02579Z" fill="#EA4335"/>
<path d="M10.5797 12.466C9.8608 12.9297 8.94794 13.177 7.91503 13.177C6.93559 13.179 5.98034 12.8729 5.18451 12.302C4.38868 11.7311 3.79259 10.9243 3.48065 9.99585L0.815933 12.0188C1.46974 13.3421 2.48156 14.4555 3.73645 15.2326C4.99134 16.0097 6.43902 16.4193 7.91503 16.4149C9.84959 16.4149 11.6977 15.727 13.0822 14.4362L10.5804 12.466H10.5797Z" fill="#34A853"/>
<path d="M13.082 14.4363C14.5298 13.0854 15.4697 11.075 15.4697 8.5C15.4697 8.0317 15.3978 7.52844 15.2903 7.06079H7.91486V10.1193H12.1599C11.9508 11.1476 11.3882 11.9437 10.5802 12.4661L13.082 14.4363Z" fill="#4A90E2"/>
<path d="M3.4807 9.9959C3.31933 9.51368 3.23736 9.00846 3.23797 8.49996C3.23797 7.98417 3.32042 7.48882 3.47344 7.02579L0.81796 4.97119C0.274713 6.06787 -0.0053294 7.27612 7.68115e-05 8.49996C7.68115e-05 9.76636 0.293591 10.9602 0.815981 12.0188L3.4807 9.9959Z" fill="#FBBC05"/>
</g>
<defs>
<clipPath id="clip0_879_3934">
<rect width="15.83" height="15.83" fill="white" transform="translate(0 0.584961)"/>
</clipPath>
</defs>
</svg>
