<svg width="20" height="20" viewBox="0 0 20 20" fill="none" xmlns="http://www.w3.org/2000/svg">
<g clip-path="url(#clip0_350_1390)">
<path d="M10 11.4062C10.7767 11.4062 11.4062 10.7767 11.4062 10C11.4062 9.22335 10.7767 8.59375 10 8.59375C9.22335 8.59375 8.59375 9.22335 8.59375 10C8.59375 10.7767 9.22335 11.4062 10 11.4062Z" fill="white"/>
<path d="M7.43125 13.3504C7.30979 13.3506 7.18969 13.3249 7.07886 13.2752C6.96803 13.2255 6.86899 13.1529 6.78828 13.0622C6.0386 12.2185 5.62451 11.1291 5.62451 10.0004C5.62451 8.87182 6.0386 7.78241 6.78828 6.93873C6.86263 6.85216 6.95348 6.78127 7.05552 6.73019C7.15756 6.67911 7.26875 6.64886 7.38261 6.64121C7.49646 6.63357 7.6107 6.64867 7.71866 6.68564C7.82661 6.72262 7.92612 6.78072 8.01138 6.85657C8.09664 6.93241 8.16595 7.02448 8.21524 7.12739C8.26454 7.23031 8.29285 7.34201 8.29852 7.45598C8.30419 7.56995 8.2871 7.68391 8.24825 7.79121C8.20941 7.8985 8.14958 7.99699 8.07226 8.08092C7.60231 8.60996 7.34274 9.29301 7.34274 10.0006C7.34274 10.7083 7.60231 11.3913 8.07226 11.9204C8.18223 12.0442 8.25408 12.1971 8.27919 12.3608C8.3043 12.5244 8.28159 12.6919 8.21379 12.8429C8.14599 12.994 8.036 13.1223 7.89703 13.2123C7.75807 13.3023 7.59605 13.3503 7.43047 13.3504H7.43125Z" fill="white"/>
<path d="M12.5688 13.3504C12.4032 13.3503 12.2412 13.3023 12.1022 13.2123C11.9632 13.1223 11.8532 12.994 11.7854 12.8429C11.7176 12.6919 11.6949 12.5244 11.72 12.3608C11.7451 12.1971 11.817 12.0442 11.927 11.9204C12.3969 11.3913 12.6565 10.7083 12.6565 10.0006C12.6565 9.29301 12.3969 8.60996 11.927 8.08092C11.8496 7.99699 11.7898 7.8985 11.751 7.79121C11.7121 7.68391 11.695 7.56995 11.7007 7.45598C11.7064 7.34201 11.7347 7.23031 11.784 7.12739C11.8333 7.02448 11.9026 6.93241 11.9878 6.85657C12.0731 6.78072 12.1726 6.72262 12.2806 6.68564C12.3885 6.64867 12.5028 6.63357 12.6166 6.64121C12.7305 6.64886 12.8417 6.67911 12.9437 6.73019C13.0457 6.78127 13.1366 6.85216 13.2109 6.93873C13.9606 7.78241 14.3747 8.87182 14.3747 10.0004C14.3747 11.1291 13.9606 12.2185 13.2109 13.0622C13.1303 13.1528 13.0314 13.2254 12.9207 13.2751C12.81 13.3248 12.6901 13.3505 12.5688 13.3504Z" fill="white"/>
<path d="M5.441 15.3407C5.32311 15.3408 5.20648 15.3166 5.0984 15.2695C4.99031 15.2225 4.89311 15.1536 4.81287 15.0672C3.52783 13.6925 2.81299 11.8809 2.81299 9.99906C2.81299 8.11723 3.52783 6.30565 4.81287 4.9309C4.88979 4.84777 4.98238 4.78066 5.08532 4.73343C5.18826 4.6862 5.29951 4.65979 5.4127 4.65571C5.52588 4.65163 5.63875 4.66996 5.74482 4.70965C5.8509 4.74934 5.94808 4.8096 6.03078 4.88698C6.11349 4.96435 6.18008 5.05731 6.22673 5.16051C6.27339 5.26371 6.29918 5.37512 6.30264 5.48832C6.30609 5.60152 6.28714 5.71429 6.24686 5.82014C6.20658 5.926 6.14578 6.02284 6.06795 6.10512C5.08069 7.16147 4.53152 8.55338 4.53152 9.99926C4.53152 11.4451 5.08069 12.837 6.06795 13.8934C6.18201 14.0158 6.25787 14.1688 6.28623 14.3336C6.31459 14.4985 6.29422 14.6681 6.22761 14.8215C6.16101 14.975 6.05106 15.1056 5.91126 15.1975C5.77146 15.2894 5.60789 15.3385 5.44061 15.3387L5.441 15.3407Z" fill="white"/>
<path d="M14.559 15.3407C14.3917 15.3404 14.2281 15.2913 14.0883 15.1995C13.9485 15.1076 13.8386 14.9769 13.772 14.8235C13.7054 14.67 13.685 14.5004 13.7133 14.3356C13.7417 14.1707 13.8176 14.0177 13.9316 13.8953C14.9189 12.839 15.4681 11.4471 15.4681 10.0012C15.4681 8.55533 14.9189 7.16342 13.9316 6.10707C13.8538 6.02479 13.793 5.92795 13.7527 5.8221C13.7124 5.71624 13.6935 5.60347 13.6969 5.49027C13.7004 5.37707 13.7262 5.26566 13.7728 5.16247C13.8195 5.05927 13.8861 4.96631 13.9688 4.88893C14.0515 4.81156 14.1487 4.75129 14.2548 4.7116C14.3608 4.67191 14.4737 4.65358 14.5869 4.65766C14.7001 4.66174 14.8113 4.68816 14.9143 4.73538C15.0172 4.78261 15.1098 4.84972 15.1867 4.93285C16.4718 6.30761 17.1866 8.11918 17.1866 10.001C17.1866 11.8828 16.4718 13.6944 15.1867 15.0692C15.1063 15.1551 15.0091 15.2236 14.9011 15.2703C14.7931 15.317 14.6766 15.341 14.559 15.3407Z" fill="white"/>
<path d="M16.7578 17.1094C16.5919 17.1093 16.4296 17.0613 16.2904 16.971C16.1512 16.8807 16.0411 16.7521 15.9734 16.6007C15.9057 16.4492 15.8833 16.2814 15.9089 16.1175C15.9345 15.9536 16.0069 15.8006 16.1176 15.677C17.5112 14.1144 18.2814 12.0938 18.2814 10C18.2814 7.90623 17.5112 5.88561 16.1176 4.32304C15.9704 4.15253 15.8961 3.93106 15.9106 3.70631C15.9251 3.48155 16.0272 3.27147 16.1951 3.12126C16.3629 2.97105 16.583 2.89273 16.8079 2.90314C17.0329 2.91356 17.2448 3.01188 17.398 3.17694C19.0737 5.05467 19.9997 7.48333 19.9997 10C19.9997 12.5167 19.0737 14.9453 17.398 16.823C17.3175 16.9131 17.2188 16.9852 17.1085 17.0345C16.9981 17.0838 16.8787 17.1093 16.7578 17.1094Z" fill="white"/>
<path d="M3.24218 17.1094C3.12117 17.1096 3.00149 17.0842 2.89101 17.0349C2.78052 16.9855 2.68174 16.9133 2.60116 16.823C0.925531 14.9453 -0.000549316 12.5167 -0.000549316 10C-0.000549316 7.48333 0.925531 5.05467 2.60116 3.17694C2.75439 3.01188 2.96629 2.91356 3.19127 2.90314C3.41625 2.89273 3.63633 2.97105 3.80415 3.12126C3.97197 3.27147 4.07411 3.48155 4.0886 3.70631C4.1031 3.93106 4.02877 4.15253 3.88163 4.32304C2.48799 5.88561 1.71782 7.90623 1.71782 10C1.71782 12.0938 2.48799 14.1144 3.88163 15.677C3.99221 15.8005 4.06467 15.9535 4.09028 16.1173C4.11588 16.2811 4.09354 16.4489 4.02594 16.6003C3.95834 16.7517 3.84838 16.8804 3.70931 16.9707C3.57024 17.061 3.40801 17.1092 3.24218 17.1094Z" fill="white"/>
</g>
<defs>
<clipPath id="clip0_350_1390">
<rect width="20" height="20" fill="white"/>
</clipPath>
</defs>
</svg>
