<svg width="14" height="14" viewBox="0 0 14 14" fill="none" xmlns="http://www.w3.org/2000/svg">
<path d="M7 1.16663C4.7425 1.16663 2.91666 2.99246 2.91666 5.24996C2.91666 8.31246 7 12.8333 7 12.8333C7 12.8333 11.0833 8.31246 11.0833 5.24996C11.0833 2.99246 9.2575 1.16663 7 1.16663ZM4.08333 5.24996C4.08333 3.63996 5.39 2.33329 7 2.33329C8.61 2.33329 9.91667 3.63996 9.91667 5.24996C9.91667 6.92996 8.23666 9.44413 7 11.0133C5.78666 9.45579 4.08333 6.91246 4.08333 5.24996Z" fill="white" fill-opacity="0.6"/>
<path d="M7 6.70829C7.80541 6.70829 8.45833 6.05537 8.45833 5.24996C8.45833 4.44454 7.80541 3.79163 7 3.79163C6.19458 3.79163 5.54166 4.44454 5.54166 5.24996C5.54166 6.05537 6.19458 6.70829 7 6.70829Z" fill="white" fill-opacity="0.6"/>
</svg>
