<svg width="25" height="25" viewBox="0 0 25 25" fill="none" xmlns="http://www.w3.org/2000/svg">
<path d="M23.3605 22.9982L22.3935 24.1449C22.8397 24.5211 23.4635 24.6044 23.9928 24.3584C24.522 24.1124 24.8605 23.5818 24.8605 22.9982H23.3605ZM23.3605 1.82864H24.8605C24.8605 1.24503 24.522 0.714411 23.9928 0.468409C23.4635 0.222408 22.8397 0.305695 22.3935 0.68191L23.3605 1.82864ZM10.8079 12.4134L9.84095 11.2667C9.50296 11.5517 9.30792 11.9713 9.30792 12.4134C9.30792 12.8555 9.50296 13.2751 9.84095 13.5601L10.8079 12.4134ZM24.8605 22.9982V1.82864H21.8605V22.9982H24.8605ZM22.3935 0.68191L9.84095 11.2667L11.7749 13.5601L24.3274 2.97537L22.3935 0.68191ZM9.84095 13.5601L22.3935 24.1449L24.3274 21.8514L11.7749 11.2667L9.84095 13.5601ZM3.3418 24.0566V0.770161H0.341803V24.0566H3.3418Z" fill="#E3E3E3" fill-opacity="0.3"/>
</svg>
