<svg width="25" height="25" viewBox="0 0 25 25" fill="none" xmlns="http://www.w3.org/2000/svg">
<path d="M1.6781 1.8285L2.64507 0.681771C2.19891 0.305554 1.57505 0.222266 1.04582 0.468266C0.516598 0.714267 0.178101 1.24489 0.178101 1.8285H1.6781ZM1.6781 22.998H0.178101C0.178101 23.5816 0.516598 24.1123 1.04582 24.3583C1.57505 24.6043 2.19891 24.521 2.64507 24.1447L1.6781 22.998ZM14.2306 12.4133L15.1975 13.56C15.5355 13.275 15.7306 12.8554 15.7306 12.4133C15.7306 11.9711 15.5355 11.5515 15.1975 11.2665L14.2306 12.4133ZM0.178101 1.8285V22.998H3.1781V1.8285H0.178101ZM2.64507 24.1447L15.1975 13.56L13.2636 11.2665L0.711135 21.8513L2.64507 24.1447ZM15.1975 11.2665L2.64507 0.681771L0.711135 2.97522L13.2636 13.56L15.1975 11.2665ZM21.6966 0.77002V24.0565H24.6966V0.77002H21.6966Z" fill="#E3E3E3" fill-opacity="0.3"/>
</svg>
