<svg width="41" height="15" viewBox="0 0 41 15" fill="none" xmlns="http://www.w3.org/2000/svg">
<path d="M16.1709 12.072C15.3389 12.072 14.5829 11.888 13.9029 11.52C13.2309 11.144 12.7029 10.632 12.3189 9.984C11.9429 9.336 11.7549 8.608 11.7549 7.8C11.7549 6.992 11.9429 6.264 12.3189 5.616C12.7029 4.968 13.2309 4.46 13.9029 4.092C14.5829 3.716 15.3389 3.528 16.1709 3.528C17.0029 3.528 17.7509 3.712 18.4149 4.08C19.0869 4.448 19.6149 4.96 19.9989 5.616C20.3829 6.264 20.5749 6.992 20.5749 7.8C20.5749 8.608 20.3829 9.34 19.9989 9.996C19.6149 10.644 19.0869 11.152 18.4149 11.52C17.7509 11.888 17.0029 12.072 16.1709 12.072ZM16.1709 11.28C16.8349 11.28 17.4349 11.132 17.9709 10.836C18.5069 10.532 18.9269 10.116 19.2309 9.588C19.5349 9.052 19.6869 8.456 19.6869 7.8C19.6869 7.144 19.5349 6.552 19.2309 6.024C18.9269 5.488 18.5069 5.072 17.9709 4.776C17.4349 4.472 16.8349 4.32 16.1709 4.32C15.5069 4.32 14.9029 4.472 14.3589 4.776C13.8229 5.072 13.3989 5.488 13.0869 6.024C12.7829 6.552 12.6309 7.144 12.6309 7.8C12.6309 8.456 12.7829 9.052 13.0869 9.588C13.3989 10.116 13.8229 10.532 14.3589 10.836C14.9029 11.132 15.5069 11.28 16.1709 11.28ZM28.3013 12L26.3813 9.3C26.1653 9.324 25.9413 9.336 25.7093 9.336H23.4533V12H22.5653V3.6H25.7093C26.7813 3.6 27.6213 3.856 28.2293 4.368C28.8373 4.88 29.1413 5.584 29.1413 6.48C29.1413 7.136 28.9733 7.692 28.6373 8.148C28.3093 8.596 27.8373 8.92 27.2213 9.12L29.2733 12H28.3013ZM25.6853 8.58C26.5173 8.58 27.1533 8.396 27.5933 8.028C28.0333 7.66 28.2533 7.144 28.2533 6.48C28.2533 5.8 28.0333 5.28 27.5933 4.92C27.1533 4.552 26.5173 4.368 25.6853 4.368H23.4533V8.58H25.6853Z" fill="white" fill-opacity="0.8"/>
<line x1="-1.74846e-08" y1="7.8" x2="10" y2="7.8" stroke="white" stroke-opacity="0.8" stroke-width="0.4"/>
<line x1="31" y1="7.8" x2="41" y2="7.8" stroke="white" stroke-opacity="0.8" stroke-width="0.4"/>
</svg>
