<svg width="32" height="32" viewBox="0 0 32 32" fill="none" xmlns="http://www.w3.org/2000/svg">
<path d="M28.6869 4.02009L29.0404 4.37365L28.6868 4.0201L25.3535 7.35343C25.1582 7.54869 24.8418 7.54869 24.6465 7.35343C24.4512 7.15817 24.4512 6.84159 24.6465 6.64633L24.2929 6.29277L24.6465 6.64632L27.9798 3.31299C28.1751 3.11773 28.4916 3.11773 28.6869 3.313C28.8821 3.50825 28.8821 3.82484 28.6869 4.02009ZM4.68841 22.2953L4.68842 22.2953L12.5522 5.97446C13.3459 4.32703 15.5474 3.99205 16.7953 5.32888C16.7953 5.32889 16.7953 5.32889 16.7953 5.32889L26.137 15.3369L26.5025 14.9957L26.137 15.3369C27.3571 16.644 26.9243 18.764 25.2895 19.4882L25.2895 19.4882L20.7296 21.5085L20.284 21.7059L20.47 22.1564C20.7042 22.7239 20.8337 23.3461 20.8337 23.9999C20.8337 26.6692 18.6699 28.8332 16.0004 28.8332C14.0733 28.8332 12.4086 27.7053 11.6322 26.0714L11.4232 25.6316L10.9781 25.8289L9.08812 26.6662C8.38862 26.9761 7.57145 26.8363 7.01483 26.3114L5.09657 24.5024C5.09656 24.5024 5.09656 24.5024 5.09655 24.5024C4.49406 23.9341 4.32898 23.0412 4.68841 22.2953ZM19.5672 22.5929L19.376 22.1082L18.8996 22.3193L12.8081 25.0182L12.3312 25.2295L12.5624 25.697C13.1878 26.9617 14.4918 27.8332 16.0004 27.8332C18.1176 27.8332 19.8337 26.1169 19.8337 23.9999C19.8337 23.5042 19.7394 23.0292 19.5672 22.5929ZM21.5259 2.50842C21.6133 2.24638 21.8965 2.10486 22.1585 2.19221L22.1585 2.19222C22.4204 2.27958 22.5619 2.56275 22.4746 2.82476L21.4746 5.82329C21.3872 6.08533 21.1041 6.22684 20.8421 6.1395C20.5802 6.05215 20.4386 5.76897 20.5259 5.50696L21.5259 2.50842ZM25.8333 10.9989C25.8333 10.7228 26.0572 10.4989 26.3333 10.4989H29C29.2761 10.4989 29.5 10.7228 29.5 10.9989C29.5 11.275 29.2761 11.4989 29 11.4989H26.3333C26.0572 11.4989 25.8333 11.275 25.8333 10.9989Z" stroke="#D8FC2C"/>
</svg>
