<svg width="150" height="145" viewBox="0 0 150 145" fill="none" xmlns="http://www.w3.org/2000/svg">
<mask id="mask0_2719_4258" style="mask-type:alpha" maskUnits="userSpaceOnUse" x="0" y="0" width="150" height="145">
<path d="M0 0H150V145H0V0Z" fill="white"/>
</mask>
<g mask="url(#mask0_2719_4258)">
<g filter="url(#filter0_d_2719_4258)">
<ellipse cx="74.5" cy="12.5" rx="77.0169" ry="76.5" fill="url(#paint0_linear_2719_4258)"/>
<ellipse cx="74.5001" cy="12.5" rx="73.4623" ry="72.9692" fill="url(#paint1_linear_2719_4258)"/>
<ellipse cx="74.5" cy="12.4999" rx="69.3152" ry="68.85" fill="url(#paint2_linear_2719_4258)"/>
<ellipse cx="74.4999" cy="12.5003" rx="65.1681" ry="64.7308" fill="url(#paint3_linear_2719_4258)"/>
<ellipse cx="74.4999" cy="12.5001" rx="60.4286" ry="60.0231" fill="url(#paint4_linear_2719_4258)"/>
<ellipse cx="74.5001" cy="12.4996" rx="56.2816" ry="55.9039" fill="url(#paint5_linear_2719_4258)"/>
<ellipse cx="74.5" cy="12.4999" rx="44.4328" ry="44.1346" fill="url(#paint6_linear_2719_4258)"/>
<g filter="url(#filter1_d_2719_4258)">
<ellipse cx="75.5001" cy="12" rx="34.3846" ry="34.1539" fill="black" fill-opacity="0.2" shape-rendering="crispEdges"/>
</g>
</g>
</g>
<g opacity="0.68" clip-path="url(#clip0_2719_4258)">
<path d="M75 13.6875C75.932 13.6875 76.6875 12.932 76.6875 12C76.6875 11.068 75.932 10.3125 75 10.3125C74.068 10.3125 73.3125 11.068 73.3125 12C73.3125 12.932 74.068 13.6875 75 13.6875Z" fill="white"/>
<path d="M71.9176 16.0207C71.7718 16.0208 71.6277 15.9901 71.4947 15.9304C71.3617 15.8708 71.2429 15.7837 71.146 15.6747C70.2464 14.6623 69.7495 13.355 69.7495 12.0007C69.7495 10.6463 70.2464 9.33904 71.146 8.32662C71.2353 8.22274 71.3443 8.13767 71.4667 8.07638C71.5892 8.01508 71.7226 7.97878 71.8592 7.9696C71.9959 7.96043 72.1329 7.97855 72.2625 8.02292C72.392 8.06729 72.5114 8.13701 72.6138 8.22803C72.7161 8.31904 72.7992 8.42952 72.8584 8.55302C72.9175 8.67651 72.9515 8.81056 72.9583 8.94732C72.9651 9.08409 72.9446 9.22084 72.898 9.34959C72.8514 9.47835 72.7796 9.59653 72.6868 9.69725C72.1229 10.3321 71.8114 11.1518 71.8114 12.0009C71.8114 12.8501 72.1229 13.6697 72.6868 14.3046C72.8188 14.4531 72.905 14.6367 72.9351 14.8331C72.9653 15.0295 72.938 15.2304 72.8566 15.4117C72.7753 15.593 72.6433 15.7469 72.4765 15.8549C72.3098 15.963 72.1154 16.0205 71.9167 16.0207H71.9176Z" fill="white"/>
<path d="M78.0825 16.0207C77.8838 16.0205 77.6894 15.963 77.5226 15.8549C77.3558 15.7469 77.2239 15.593 77.1425 15.4117C77.0611 15.2304 77.0339 15.0295 77.064 14.8331C77.0941 14.6367 77.1804 14.4531 77.3123 14.3046C77.8763 13.6697 78.1878 12.8501 78.1878 12.0009C78.1878 11.1518 77.8763 10.3321 77.3123 9.69725C77.2195 9.59653 77.1478 9.47835 77.1011 9.34959C77.0545 9.22084 77.034 9.08409 77.0408 8.94732C77.0476 8.81056 77.0816 8.67651 77.1408 8.55302C77.1999 8.42952 77.2831 8.31904 77.3854 8.22803C77.4877 8.13701 77.6071 8.06729 77.7367 8.02292C77.8662 7.97855 78.0033 7.96043 78.1399 7.9696C78.2765 7.97878 78.41 8.01508 78.5324 8.07638C78.6549 8.13767 78.7639 8.22274 78.8531 8.32662C79.7527 9.33904 80.2496 10.6463 80.2496 12.0007C80.2496 13.355 79.7527 14.6623 78.8531 15.6747C78.7563 15.7835 78.6377 15.8706 78.5048 15.9302C78.372 15.9899 78.2281 16.0207 78.0825 16.0207Z" fill="white"/>
<path d="M69.5291 18.4086C69.3876 18.4087 69.2477 18.3796 69.118 18.3232C68.9883 18.2667 68.8716 18.1841 68.7753 18.0804C67.2333 16.4307 66.3755 14.2568 66.3755 11.9986C66.3755 9.74043 67.2333 7.56654 68.7753 5.91683C68.8676 5.81707 68.9788 5.73654 69.1023 5.67987C69.2258 5.6232 69.3593 5.59151 69.4951 5.58661C69.631 5.58171 69.7664 5.60371 69.8937 5.65133C70.021 5.69896 70.1376 5.77128 70.2368 5.86413C70.3361 5.95698 70.416 6.06853 70.472 6.19237C70.528 6.31621 70.5589 6.4499 70.5631 6.58574C70.5672 6.72158 70.5445 6.85691 70.4961 6.98393C70.4478 7.11095 70.3748 7.22717 70.2814 7.32589C69.0967 8.59352 68.4377 10.2638 68.4377 11.9989C68.4377 13.7339 69.0967 15.4042 70.2814 16.6718C70.4183 16.8187 70.5093 17.0023 70.5434 17.2001C70.5774 17.398 70.553 17.6014 70.473 17.7856C70.3931 17.9697 70.2612 18.1265 70.0934 18.2368C69.9257 18.347 69.7294 18.4059 69.5286 18.4062L69.5291 18.4086Z" fill="white"/>
<path d="M80.4707 18.4086C80.27 18.4083 80.0737 18.3494 79.9059 18.2392C79.7382 18.129 79.6062 17.9721 79.5263 17.788C79.4464 17.6039 79.4219 17.4004 79.456 17.2026C79.49 17.0047 79.581 16.8211 79.7179 16.6743C80.9026 15.4066 81.5616 13.7364 81.5616 12.0013C81.5616 10.2662 80.9026 8.59596 79.7179 7.32833C79.6245 7.22961 79.5515 7.11339 79.5032 6.98637C79.4549 6.85935 79.4321 6.72402 79.4363 6.58818C79.4404 6.45234 79.4714 6.31865 79.5274 6.19481C79.5833 6.07097 79.6633 5.95942 79.7625 5.86657C79.8617 5.77372 79.9784 5.7014 80.1057 5.65378C80.2329 5.60615 80.3684 5.58415 80.5042 5.58905C80.64 5.59395 80.7735 5.62564 80.8971 5.68231C81.0206 5.73899 81.1317 5.81951 81.224 5.91927C82.7661 7.56898 83.6239 9.74287 83.6239 12.0011C83.6239 14.2593 82.7661 16.4331 81.224 18.0829C81.1276 18.186 81.0109 18.2682 80.8813 18.3242C80.7517 18.3803 80.6119 18.409 80.4707 18.4086Z" fill="white"/>
<path d="M83.1094 20.5315C82.9103 20.5314 82.7155 20.4738 82.5485 20.3655C82.3815 20.2571 82.2494 20.1028 82.1681 19.921C82.0869 19.7393 82.06 19.5379 82.0907 19.3412C82.1214 19.1445 82.2084 18.9609 82.3411 18.8126C84.0135 16.9375 84.9377 14.5128 84.9377 12.0002C84.9377 9.48772 84.0135 7.06298 82.3411 5.18789C82.1645 4.98327 82.0754 4.71752 82.0927 4.44781C82.1101 4.17811 82.2327 3.926 82.4341 3.74575C82.6355 3.56551 82.8996 3.47152 83.1695 3.48401C83.4395 3.49651 83.6938 3.6145 83.8777 3.81258C85.8884 6.06585 86.9997 8.98024 86.9997 12.0002C86.9997 15.0202 85.8884 17.9346 83.8777 20.1879C83.781 20.296 83.6626 20.3824 83.5302 20.4416C83.3978 20.5008 83.2544 20.5315 83.1094 20.5315Z" fill="white"/>
<path d="M66.8905 20.5315C66.7453 20.5318 66.6017 20.5013 66.4691 20.4421C66.3366 20.3829 66.218 20.2962 66.1213 20.1879C64.1106 17.9346 62.9993 15.0202 62.9993 12.0002C62.9993 8.98025 64.1106 6.06585 66.1213 3.81258C66.3052 3.6145 66.5595 3.49651 66.8295 3.48401C67.0994 3.47152 67.3635 3.56551 67.5649 3.74575C67.7663 3.926 67.8889 4.17811 67.9063 4.44781C67.9236 4.71752 67.8345 4.98328 67.6579 5.18789C65.9855 7.06298 65.0613 9.48772 65.0613 12.0002C65.0613 14.5128 65.9855 16.9375 67.6579 18.8126C67.7906 18.9609 67.8775 19.1444 67.9083 19.341C67.939 19.5376 67.9122 19.7389 67.8311 19.9206C67.7499 20.1023 67.618 20.2567 67.4511 20.3651C67.2842 20.4735 67.0895 20.5313 66.8905 20.5315Z" fill="white"/>
</g>
<defs>
<filter id="filter0_d_2719_4258" x="-12.5168" y="-68" width="174.034" height="173" filterUnits="userSpaceOnUse" color-interpolation-filters="sRGB">
<feFlood flood-opacity="0" result="BackgroundImageFix"/>
<feColorMatrix in="SourceAlpha" type="matrix" values="0 0 0 0 0 0 0 0 0 0 0 0 0 0 0 0 0 0 127 0" result="hardAlpha"/>
<feOffset dy="6"/>
<feGaussianBlur stdDeviation="5"/>
<feComposite in2="hardAlpha" operator="out"/>
<feColorMatrix type="matrix" values="0 0 0 0 0.0156863 0 0 0 0 0.121569 0 0 0 0 0.117647 0 0 0 0.25 0"/>
<feBlend mode="normal" in2="BackgroundImageFix" result="effect1_dropShadow_2719_4258"/>
<feBlend mode="normal" in="SourceGraphic" in2="effect1_dropShadow_2719_4258" result="shape"/>
</filter>
<filter id="filter1_d_2719_4258" x="35.1155" y="-28.1538" width="80.7693" height="80.3076" filterUnits="userSpaceOnUse" color-interpolation-filters="sRGB">
<feFlood flood-opacity="0" result="BackgroundImageFix"/>
<feColorMatrix in="SourceAlpha" type="matrix" values="0 0 0 0 0 0 0 0 0 0 0 0 0 0 0 0 0 0 127 0" result="hardAlpha"/>
<feOffset/>
<feGaussianBlur stdDeviation="3"/>
<feComposite in2="hardAlpha" operator="out"/>
<feColorMatrix type="matrix" values="0 0 0 0 0.0156863 0 0 0 0 0.121569 0 0 0 0 0.117647 0 0 0 0.25 0"/>
<feBlend mode="normal" in2="BackgroundImageFix" result="effect1_dropShadow_2719_4258"/>
<feBlend mode="normal" in="SourceGraphic" in2="effect1_dropShadow_2719_4258" result="shape"/>
</filter>
<linearGradient id="paint0_linear_2719_4258" x1="40.7311" y1="-54.5846" x2="116.385" y2="77.6714" gradientUnits="userSpaceOnUse">
<stop stop-color="#041F1E"/>
<stop offset="0.512321" stop-color="#596767"/>
<stop offset="1" stop-color="#041F1E"/>
</linearGradient>
<linearGradient id="paint1_linear_2719_4258" x1="42.2897" y1="-51.4884" x2="114.452" y2="74.6635" gradientUnits="userSpaceOnUse">
<stop stop-color="#041F1E"/>
<stop offset="0.512321" stop-color="#596767"/>
<stop offset="1" stop-color="#041F1E"/>
</linearGradient>
<linearGradient id="paint2_linear_2719_4258" x1="44.108" y1="-47.8763" x2="112.197" y2="71.1542" gradientUnits="userSpaceOnUse">
<stop stop-color="#041F1E"/>
<stop offset="0.512321" stop-color="#596767"/>
<stop offset="1" stop-color="#041F1E"/>
</linearGradient>
<linearGradient id="paint3_linear_2719_4258" x1="45.9262" y1="-44.2636" x2="109.941" y2="67.6453" gradientUnits="userSpaceOnUse">
<stop stop-color="#041F1E"/>
<stop offset="0.512321" stop-color="#596767"/>
<stop offset="1" stop-color="#041F1E"/>
</linearGradient>
<linearGradient id="paint4_linear_2719_4258" x1="48.0043" y1="-40.1355" x2="107.364" y2="63.6346" gradientUnits="userSpaceOnUse">
<stop stop-color="#041F1E"/>
<stop offset="0.512321" stop-color="#596767"/>
<stop offset="1" stop-color="#041F1E"/>
</linearGradient>
<linearGradient id="paint5_linear_2719_4258" x1="49.8228" y1="-36.5238" x2="105.109" y2="60.1248" gradientUnits="userSpaceOnUse">
<stop stop-color="#041F1E"/>
<stop offset="0.512321" stop-color="#596767"/>
<stop offset="1" stop-color="#041F1E"/>
</linearGradient>
<linearGradient id="paint6_linear_2719_4258" x1="55.0179" y1="-26.2028" x2="98.6645" y2="50.0987" gradientUnits="userSpaceOnUse">
<stop stop-color="#041F1E"/>
<stop offset="0.512321" stop-color="#596767"/>
<stop offset="1" stop-color="#041F1E"/>
</linearGradient>
<clipPath id="clip0_2719_4258">
<rect width="24" height="24" fill="white" transform="translate(63)"/>
</clipPath>
</defs>
</svg>
