<svg width="14" height="14" viewBox="0 0 14 14" fill="none" xmlns="http://www.w3.org/2000/svg">
<path d="M4.08334 6.41663H5.25V7.58329H4.08334V6.41663ZM4.08334 8.74996H5.25V9.91663H4.08334V8.74996ZM6.41667 6.41663H7.58334V7.58329H6.41667V6.41663ZM6.41667 8.74996H7.58334V9.91663H6.41667V8.74996ZM8.75 6.41663H9.91667V7.58329H8.75V6.41663ZM8.75 8.74996H9.91667V9.91663H8.75V8.74996Z" fill="white" fill-opacity="0.6"/>
<path d="M2.91667 12.8333H11.0833C11.7267 12.8333 12.25 12.31 12.25 11.6666V3.49996C12.25 2.85654 11.7267 2.33329 11.0833 2.33329H9.91667V1.16663H8.75V2.33329H5.25V1.16663H4.08333V2.33329H2.91667C2.27325 2.33329 1.75 2.85654 1.75 3.49996V11.6666C1.75 12.31 2.27325 12.8333 2.91667 12.8333ZM11.0833 4.66663L11.0839 11.6666H2.91667V4.66663H11.0833Z" fill="white" fill-opacity="0.6"/>
</svg>
