<svg width="20" height="20" viewBox="0 0 20 20" fill="none" xmlns="http://www.w3.org/2000/svg">
<path d="M16.75 7.68446C15.2417 7.68446 14.625 6.61779 15.375 5.30946C15.8084 4.55113 15.55 3.58446 14.7917 3.15113L13.35 2.32613C12.6917 1.93446 11.8417 2.16779 11.45 2.82613L11.3584 2.98446C10.6084 4.29279 9.37502 4.29279 8.61669 2.98446L8.52502 2.82613C8.15002 2.16779 7.30002 1.93446 6.64169 2.32613L5.20002 3.15113C4.44169 3.58446 4.18335 4.55946 4.61669 5.31779C5.37502 6.61779 4.75835 7.68446 3.25002 7.68446C2.38335 7.68446 1.66669 8.39279 1.66669 9.26779V10.7345C1.66669 11.6011 2.37502 12.3178 3.25002 12.3178C4.75835 12.3178 5.37502 13.3845 4.61669 14.6928C4.18335 15.4511 4.44169 16.4178 5.20002 16.8511L6.64169 17.6761C7.30002 18.0678 8.15002 17.8345 8.54169 17.1761L8.63335 17.0178C9.38335 15.7095 10.6167 15.7095 11.375 17.0178L11.4667 17.1761C11.8584 17.8345 12.7084 18.0678 13.3667 17.6761L14.8084 16.8511C15.5667 16.4178 15.825 15.4428 15.3917 14.6928C14.6334 13.3845 15.25 12.3178 16.7584 12.3178C17.625 12.3178 18.3417 11.6095 18.3417 10.7345V9.26779C18.3334 8.40113 17.625 7.68446 16.75 7.68446ZM10 12.7095C8.50835 12.7095 7.29169 11.4928 7.29169 10.0011C7.29169 8.50946 8.50835 7.29279 10 7.29279C11.4917 7.29279 12.7084 8.50946 12.7084 10.0011C12.7084 11.4928 11.4917 12.7095 10 12.7095Z" fill="white"/>
</svg>
