<svg width="28" height="33" viewBox="0 0 28 33" fill="none" xmlns="http://www.w3.org/2000/svg">
<path d="M3.6781 6.00135L4.64507 4.85462C4.19891 4.47841 3.57505 4.39512 3.04582 4.64112C2.5166 4.88712 2.1781 5.41774 2.1781 6.00135H3.6781ZM3.6781 27.1709H2.1781C2.1781 27.7545 2.5166 28.2851 3.04582 28.5311C3.57505 28.7771 4.19891 28.6938 4.64507 28.3176L3.6781 27.1709ZM16.2306 16.5861L17.1975 17.7328C17.5355 17.4478 17.7306 17.0282 17.7306 16.5861C17.7306 16.144 17.5355 15.7244 17.1975 15.4394L16.2306 16.5861ZM2.1781 6.00135V27.1709H5.1781V6.00135H2.1781ZM4.64507 28.3176L17.1975 17.7328L15.2636 15.4394L2.71114 26.0241L4.64507 28.3176ZM17.1975 15.4394L4.64507 4.85462L2.71114 7.14807L15.2636 17.7328L17.1975 15.4394ZM23.6966 4.94287V28.2294H26.6966V4.94287H23.6966Z" fill="#E3E3E3"/>
</svg>
