<svg width="180" height="17" viewBox="0 0 180 17" fill="none" xmlns="http://www.w3.org/2000/svg">
<path d="M7.69 16.22C5.56333 16.22 3.906 15.626 2.718 14.438C1.53 13.2353 0.936 11.5193 0.936 9.29V0.599999H3.796V9.18C3.796 12.2013 5.10133 13.712 7.712 13.712C10.308 13.712 11.606 12.2013 11.606 9.18V0.599999H14.422V9.29C14.422 11.5193 13.828 13.2353 12.64 14.438C11.4667 15.626 9.81667 16.22 7.69 16.22ZM24.7634 0.599999C26.098 0.599999 27.2567 0.819999 28.2394 1.26C29.2367 1.7 29.9994 2.33067 30.5274 3.152C31.0554 3.97333 31.3194 4.94867 31.3194 6.078C31.3194 7.19267 31.0554 8.168 30.5274 9.004C29.9994 9.82533 29.2367 10.456 28.2394 10.896C27.2567 11.336 26.098 11.556 24.7634 11.556H21.2874V16H18.4274V0.599999H24.7634ZM24.6314 9.136C25.878 9.136 26.824 8.872 27.4694 8.344C28.1147 7.816 28.4374 7.06067 28.4374 6.078C28.4374 5.09533 28.1147 4.34 27.4694 3.812C26.824 3.284 25.878 3.02 24.6314 3.02H21.2874V9.136H24.6314ZM44.2514 16L41.1054 11.49C40.9734 11.5047 40.7754 11.512 40.5114 11.512H37.0354V16H34.1754V0.599999H40.5114C41.8461 0.599999 43.0048 0.819999 43.9874 1.26C44.9848 1.7 45.7474 2.33067 46.2754 3.152C46.8034 3.97333 47.0674 4.94867 47.0674 6.078C47.0674 7.23667 46.7814 8.234 46.2094 9.07C45.6521 9.906 44.8454 10.5293 43.7894 10.94L47.3314 16H44.2514ZM44.1854 6.078C44.1854 5.09533 43.8628 4.34 43.2174 3.812C42.5721 3.284 41.6261 3.02 40.3794 3.02H37.0354V9.158H40.3794C41.6261 9.158 42.5721 8.894 43.2174 8.366C43.8628 7.82333 44.1854 7.06067 44.1854 6.078ZM50.2672 0.599999H53.1272V16H50.2672V0.599999ZM62.0666 16.22C60.8786 16.22 59.7273 16.0513 58.6126 15.714C57.5126 15.3767 56.6399 14.9293 55.9946 14.372L56.9846 12.15C57.6153 12.6487 58.3853 13.0593 59.2946 13.382C60.2186 13.69 61.1426 13.844 62.0666 13.844C63.2106 13.844 64.0613 13.6607 64.6186 13.294C65.1906 12.9273 65.4766 12.4433 65.4766 11.842C65.4766 11.402 65.3153 11.0427 64.9926 10.764C64.6846 10.4707 64.2886 10.2433 63.8046 10.082C63.3206 9.92067 62.6606 9.73733 61.8246 9.532C60.6513 9.25333 59.6979 8.97467 58.9646 8.696C58.2459 8.41733 57.6226 7.98467 57.0946 7.398C56.5813 6.79667 56.3246 5.99 56.3246 4.978C56.3246 4.12733 56.5519 3.35733 57.0066 2.668C57.4759 1.964 58.1726 1.40667 59.0966 0.995999C60.0353 0.585332 61.1793 0.379999 62.5286 0.379999C63.4673 0.379999 64.3913 0.497333 65.3006 0.732C66.2099 0.966666 66.9946 1.304 67.6546 1.744L66.7526 3.966C66.0779 3.57 65.3739 3.26933 64.6406 3.064C63.9073 2.85867 63.1959 2.756 62.5066 2.756C61.3773 2.756 60.5339 2.94667 59.9766 3.328C59.4339 3.70933 59.1626 4.21533 59.1626 4.846C59.1626 5.286 59.3166 5.64533 59.6246 5.924C59.9473 6.20267 60.3506 6.42267 60.8346 6.584C61.3186 6.74533 61.9786 6.92867 62.8146 7.134C63.9586 7.398 64.8973 7.67667 65.6306 7.97C66.3639 8.24867 66.9873 8.68133 67.5006 9.268C68.0286 9.85467 68.2926 10.6467 68.2926 11.644C68.2926 12.4947 68.0579 13.2647 67.5886 13.954C67.1339 14.6433 66.4373 15.1933 65.4986 15.604C64.5599 16.0147 63.4159 16.22 62.0666 16.22ZM82.6785 13.602V16H71.1285V0.599999H82.3705V2.998H73.9885V7.002H81.4245V9.356H73.9885V13.602H82.6785ZM102.023 16L98.8769 11.49C98.7449 11.5047 98.5469 11.512 98.2829 11.512H94.8069V16H91.9469V0.599999H98.2829C99.6176 0.599999 100.776 0.819999 101.759 1.26C102.756 1.7 103.519 2.33067 104.047 3.152C104.575 3.97333 104.839 4.94867 104.839 6.078C104.839 7.23667 104.553 8.234 103.981 9.07C103.424 9.906 102.617 10.5293 101.561 10.94L105.103 16H102.023ZM101.957 6.078C101.957 5.09533 101.634 4.34 100.989 3.812C100.344 3.284 99.3976 3.02 98.1509 3.02H94.8069V9.158H98.1509C99.3976 9.158 100.344 8.894 100.989 8.366C101.634 7.82333 101.957 7.06067 101.957 6.078ZM118.027 12.436H110.327L108.809 16H105.861L112.791 0.599999H115.607L122.559 16H119.567L118.027 12.436ZM117.081 10.192L114.177 3.46L111.295 10.192H117.081ZM171.457 16.22C169.888 16.22 168.473 15.8827 167.211 15.208C165.95 14.5187 164.96 13.5727 164.241 12.37C163.523 11.1527 163.163 9.796 163.163 8.3C163.163 6.804 163.523 5.45467 164.241 4.252C164.96 3.03467 165.95 2.08867 167.211 1.414C168.473 0.724666 169.888 0.379999 171.457 0.379999C173.027 0.379999 174.442 0.724666 175.703 1.414C176.965 2.08867 177.955 3.02733 178.673 4.23C179.392 5.43267 179.751 6.78933 179.751 8.3C179.751 9.81067 179.392 11.1673 178.673 12.37C177.955 13.5727 176.965 14.5187 175.703 15.208C174.442 15.8827 173.027 16.22 171.457 16.22ZM171.457 13.712C172.484 13.712 173.408 13.4847 174.229 13.03C175.051 12.5607 175.696 11.9153 176.165 11.094C176.635 10.258 176.869 9.32667 176.869 8.3C176.869 7.27333 176.635 6.34933 176.165 5.528C175.696 4.692 175.051 4.04667 174.229 3.592C173.408 3.12267 172.484 2.888 171.457 2.888C170.431 2.888 169.507 3.12267 168.685 3.592C167.864 4.04667 167.219 4.692 166.749 5.528C166.28 6.34933 166.045 7.27333 166.045 8.3C166.045 9.32667 166.28 10.258 166.749 11.094C167.219 11.9153 167.864 12.5607 168.685 13.03C169.507 13.4847 170.431 13.712 171.457 13.712Z" fill="white"/>
<path d="M124.517 0.599999H131.249C132.892 0.599999 134.351 0.922666 135.627 1.568C136.903 2.19867 137.893 3.10067 138.597 4.274C139.301 5.43267 139.653 6.77467 139.653 8.3C139.653 9.82533 139.301 11.1747 138.597 12.348C137.893 13.5067 136.903 14.4087 135.627 15.054C134.351 15.6847 132.892 16 131.249 16H124.517V0.599999ZM131.117 13.58C132.247 13.58 133.237 13.3673 134.087 12.942C134.953 12.502 135.613 11.886 136.067 11.094C136.537 10.2873 136.771 9.356 136.771 8.3C136.771 7.244 136.537 6.32 136.067 5.528C135.613 4.72133 134.953 4.10533 134.087 3.68C133.237 3.24 132.247 3.02 131.117 3.02H127.377V13.58H131.117ZM142.693 0.599999H145.553V16H142.693V0.599999ZM156.362 10.566V16H153.502V10.61L147.452 0.599999H150.51L155.02 8.102L159.574 0.599999H162.39L156.362 10.566Z" fill="#906DD5"/>
</svg>
