<svg width="107" height="28" viewBox="0 0 107 28" fill="none" xmlns="http://www.w3.org/2000/svg">
<path d="M8.03695 28C5.96074 28 4.33102 27.6639 3.14781 26.9916C1.98691 26.2969 1.17206 25.2997 0.703233 24C0.234411 22.6779 0 21.0644 0 19.1597V0.369747H5.92725V20.0672C5.92725 20.6275 5.9719 21.1877 6.0612 21.7479C6.1505 22.3081 6.34026 22.7675 6.63048 23.1261C6.94303 23.4846 7.41185 23.6639 8.03695 23.6639C8.68437 23.6639 9.15319 23.4846 9.44342 23.1261C9.73364 22.7675 9.91224 22.3081 9.97921 21.7479C10.0685 21.1877 10.1132 20.6275 10.1132 20.0672V0.369747H16.0739V19.1597C16.0739 21.0644 15.8283 22.6779 15.3372 24C14.8684 25.2997 14.0535 26.2969 12.8926 26.9916C11.7317 27.6639 10.1132 28 8.03695 28Z" fill="white"/>
<path d="M21.5622 27.5966V0.369747H30.6707C32.3004 0.369747 33.6399 0.683473 34.6892 1.31092C35.7384 1.91597 36.5198 2.81232 37.0333 4C37.5467 5.16527 37.8035 6.58823 37.8035 8.26891C37.8035 10.3753 37.4575 11.9888 36.7654 13.1092C36.0733 14.2073 35.1357 14.9692 33.9524 15.395C32.7692 15.8207 31.4409 16.0336 29.9675 16.0336H27.5564V27.5966H21.5622ZM27.5564 11.8319H29.5656C30.3023 11.8319 30.8605 11.6975 31.24 11.4286C31.6195 11.1597 31.8651 10.7563 31.9767 10.2185C32.1106 9.68067 32.1776 8.9972 32.1776 8.16807C32.1776 7.47339 32.1218 6.86835 32.0102 6.35294C31.9209 5.81513 31.6865 5.38936 31.307 5.07563C30.9274 4.76191 30.3358 4.60504 29.5321 4.60504H27.5564V11.8319Z" fill="white"/>
<path d="M42.3674 27.5966V0.369747H49.8351C51.6657 0.369747 53.2508 0.571428 54.5903 0.974789C55.9298 1.37815 56.9679 2.10644 57.7046 3.15966C58.4637 4.19048 58.8432 5.65826 58.8432 7.56303C58.8432 8.68347 58.7539 9.68067 58.5753 10.5546C58.3967 11.4286 58.0618 12.1905 57.5707 12.8403C57.1018 13.4678 56.4209 13.9944 55.5279 14.4202L59.245 27.5966H53.0499L50.0695 15.395H48.3617V27.5966H42.3674ZM48.3617 11.9328H50.036C50.8844 11.9328 51.543 11.7871 52.0118 11.4958C52.4806 11.1821 52.8043 10.7451 52.9829 10.1849C53.1838 9.60224 53.2843 8.90756 53.2843 8.10084C53.2843 6.93557 53.0722 6.02801 52.648 5.37815C52.2239 4.72829 51.4425 4.40336 50.3039 4.40336H48.3617V11.9328Z" fill="white"/>
<path d="M64.1546 27.5966V0.369747H70.1488V27.5966H64.1546Z" fill="white"/>
<path d="M83.0676 28C81.3709 28 79.9533 27.6975 78.8147 27.0924C77.6761 26.4874 76.8166 25.5574 76.2362 24.3025C75.6557 23.0252 75.332 21.3782 75.265 19.3613L80.3886 18.5882C80.4109 19.7535 80.5114 20.6947 80.69 21.4118C80.8909 22.1289 81.1588 22.6443 81.4937 22.958C81.8509 23.2717 82.275 23.4286 82.7662 23.4286C83.3913 23.4286 83.7931 23.2157 83.9717 22.7899C84.1727 22.3641 84.2731 21.916 84.2731 21.4454C84.2731 20.3249 84.0052 19.3838 83.4694 18.6218C82.9336 17.8375 82.2081 17.0532 81.2927 16.2689L78.9486 14.2185C77.9217 13.3445 77.051 12.3585 76.3366 11.2605C75.6446 10.1401 75.2985 8.7619 75.2985 7.12605C75.2985 4.81793 75.9794 3.05882 77.3412 1.84874C78.7031 0.616247 80.556 0 82.9001 0C84.3513 0 85.5121 0.246499 86.3828 0.739496C87.2758 1.23249 87.9456 1.88235 88.3921 2.68907C88.8609 3.47339 89.1734 4.31373 89.3297 5.21008C89.5083 6.08403 89.6088 6.92437 89.6311 7.73109L84.474 8.36975C84.4517 7.56302 84.3959 6.86835 84.3066 6.28572C84.2396 5.68067 84.0834 5.22129 83.8378 4.90756C83.5922 4.57143 83.2127 4.40336 82.6992 4.40336C82.1411 4.40336 81.7281 4.63865 81.4602 5.10924C81.2146 5.57983 81.0918 6.05042 81.0918 6.52101C81.0918 7.52941 81.3262 8.35854 81.7951 9.0084C82.2862 9.63585 82.9225 10.2969 83.7038 10.9916L85.9475 12.9748C87.1307 13.9832 88.1242 15.126 88.9279 16.4034C89.7539 17.6807 90.1669 19.2605 90.1669 21.1429C90.1669 22.4202 89.8767 23.5854 89.2962 24.6387C88.7158 25.6695 87.8897 26.4874 86.8182 27.0924C85.7689 27.6975 84.5187 28 83.0676 28Z" fill="white"/>
<path d="M94.7436 27.5966V0.369747H106.933V4.47059H100.738V11.2269H105.46V15.395H100.738V23.5294H107V27.5966H94.7436Z" fill="white"/>
</svg>
